#!OML:ASF F:\VICON\USERDATA\INSTALL\rory3\rory3.ASF
:FULLY-SPECIFIED
:DEGREES
168
root 0.20216 18.2751 2.64351 -2.93612 -1.83803 -3.62382
lowerback 9.93627 -0.243024 2.67726
upperback 1.08965 0.0957404 2.68347
thorax -4.44004 0.020839 1.27405
lowerneck -16.1727 -3.10002 -1.80078
upperneck 21.6526 -3.95942 0.415235
head 9.55973 -1.94465 -0.067617
rclavicle -9.16894e-015 -2.14687e-014
rhumerus -27.4647 -21.8489 -77.5703
rradius 21.2708
rwrist 9.7921
rhand -16.59 21.4835
rfingers 7.12502
rthumb 9.63099 -8.27636
lclavicle -9.16894e-015 -2.14687e-014
lhumerus -28.3441 -3.43316 85.9211
lradius 26.8177
lwrist 2.40256
lhand -27.0453 24.5906
lfingers 7.12502
lthumb -0.463865 54.5699
rfemur -13.1373 6.33581 28.7153
rtibia 28.1017
rfoot -9.04627 -4.22329
rtoes 8.72884
lfemur -12.3711 0.358458 -17.2815
ltibia 67.5754
lfoot 0.314789 -7.12781
ltoes 0.0296049
169
root 0.185219 18.2595 2.79817 -2.95952 -1.83303 -4.02805
lowerback 10.0256 -0.212547 3.07014
upperback 1.03642 0.188849 2.74338
thorax -4.54496 0.0592505 1.10406
lowerneck -15.9585 -3.08451 -1.7426
upperneck 21.6302 -3.93036 0.306656
head 9.50784 -1.93994 -0.107049
rclavicle -6.06293e-015 3.77691e-014
rhumerus -27.3578 -21.2301 -77.834
rradius 21.5336
rwrist 9.26475
rhand -17.0639 23.4311
rfingers 7.12502
rthumb 9.17368 -6.34934
lclavicle -6.06293e-015 3.77691e-014
lhumerus -28.6578 -2.77161 85.771
lradius 26.7746
lwrist 2.02848
lhand -28.9647 21.0285
lfingers 7.12502
lthumb -2.31762 50.9956
rfemur -12.5893 6.62079 29.3026
rtibia 28.2375
rfoot -9.59943 -4.75542
rtoes 9.43924
lfemur -13.7318 0.508675 -16.6674
ltibia 67.9053
lfoot -0.824749 -6.95178
ltoes 0.643312
170
root 0.172844 18.2461 2.95423 -2.88511 -1.85908 -4.27427
lowerback 9.96263 -0.220571 3.27039
upperback 1.0212 0.200172 2.79759
thorax -4.5254 0.0616822 1.04639
lowerneck -16.1279 -3.0029 -1.63962
upperneck 21.9049 -3.80005 0.126475
head 9.62848 -1.88983 -0.175
rclavicle -3.50358e-015 1.63003e-014
rhumerus -27.0629 -20.6871 -78.1828
rradius 21.9775
rwrist 9.02121
rhand -17.4822 24.3498
rfingers 7.12502
rthumb 8.77007 -5.44803
lclavicle -3.50358e-015 1.63003e-014
lhumerus -29.0143 -2.206 85.6591
lradius 26.8395
lwrist 2.21971
lhand -31.0642 14.4848
lfingers 7.12502
lthumb -4.34509 44.4202
rfemur -12.1472 6.62721 29.6844
rtibia 28.4039
rfoot -10.2147 -5.06773
rtoes 10.0557
lfemur -15.1675 0.606484 -16.2892
ltibia 68.0449
lfoot -2.05292 -6.42783
ltoes 0.353979
171
root 0.162675 18.2491 3.12659 -2.87158 -1.84461 -4.21409
lowerback 9.85394 -0.169767 3.22757
upperback 1.00965 0.254448 2.72929
thorax -4.47621 0.0891379 0.991231
lowerneck -16.1404 -3.03621 -1.67465
upperneck 21.9764 -3.84798 0.168078
head 9.6582 -1.90986 -0.16199
rclavicle -8.64713e-015 -1.78906e-014
rhumerus -26.7886 -20.1088 -78.5242
rradius 22.2744
rwrist 8.38582
rhand -17.3472 20.9407
rfingers 7.12502
rthumb 8.90029 -8.85154
lclavicle -8.64713e-015 -1.78906e-014
lhumerus -29.3013 -1.8483 85.5785
lradius 26.5516
lwrist 2.70906
lhand -30.58 14.9474
lfingers 7.12502
lthumb -3.8776 44.8919
rfemur -11.5431 6.37509 29.7164
rtibia 28.5713
rfoot -10.9503 -4.97629
rtoes 9.91439
lfemur -16.3723 0.516268 -16.3327
ltibia 67.8787
lfoot -2.90376 -5.96697
ltoes 2.56108
172
root 0.152856 18.2482 3.28986 -2.90956 -1.90813 -4.20263
lowerback 9.99197 -0.0529493 3.27423
upperback 0.920974 0.422184 2.65057
thorax -4.64407 0.168372 0.860935
lowerneck -15.9456 -3.08329 -1.77358
upperneck 21.955 -3.92969 0.326918
head 9.62085 -1.93873 -0.0977658
rclavicle 3.72721e-015 -3.57812e-015
rhumerus -26.7832 -19.339 -78.8102
rradius 22.6721
rwrist 7.40363
rhand -16.9358 18.2985
rfingers 7.12502
rthumb 9.29726 -11.4765
lclavicle 3.72721e-015 -3.57812e-015
lhumerus -29.6078 -1.64995 85.6083
lradius 26.2098
lwrist 3.36008
lhand -27.7589 24.1771
lfingers 7.12502
lthumb -1.15309 54.1537
rfemur -10.9583 6.12546 29.8003
rtibia 28.7564
rfoot -11.6788 -4.68455
rtoes 9.42543
lfemur -17.4481 0.505456 -16.3229
ltibia 67.5034
lfoot -3.63625 -5.69579
ltoes 2.52541
173
root 0.14416 18.2368 3.44669 -2.92747 -2.12253 -4.42628
lowerback 10.1411 0.0663511 3.5346
upperback 0.855207 0.621277 2.66075
thorax -4.79216 0.2595 0.698082
lowerneck -15.7764 -3.07273 -1.782
upperneck 21.937 -3.92377 0.360859
head 9.58376 -1.93367 -0.080808
rclavicle 4.82053e-015 0
rhumerus -26.8648 -18.173 -79.2387
rradius 23.4903
rwrist 6.14346
rhand -16.9801 17.8715
rfingers 7.12502
rthumb 9.25453 -11.9053
lclavicle 4.82053e-015 0
lhumerus -30.0345 -1.39599 85.6376
lradius 26.2145
lwrist 3.67696
lhand -26.1227 28.2582
lfingers 7.12502
lthumb 0.427273 58.2376
rfemur -10.4681 6.0935 30.1458
rtibia 28.9966
rfoot -12.2811 -4.58284
rtoes 9.26101
lfemur -18.5045 0.710642 -16.0474
ltibia 66.9985
lfoot -4.32286 -5.38893
ltoes 0.454467
